<svg width="18" height="19" viewBox="0 0 18 19" fill="none" xmlns="http://www.w3.org/2000/svg">
<g id="Graph">
<path id="Stroke 1" fill-rule="evenodd" clip-rule="evenodd" d="M13.3983 10.5743C13.9606 10.5743 14.4325 11.0383 14.3466 11.5936C13.8422 14.8603 11.0457 17.2857 7.67289 17.2857C3.94131 17.2857 0.916748 14.2611 0.916748 10.5304C0.916748 7.45674 3.25184 4.59359 5.88078 3.94622C6.4457 3.80674 7.02464 4.20411 7.02464 4.78569C7.02464 8.72604 7.1571 9.74534 7.90534 10.2997C8.65359 10.8541 9.53341 10.5743 13.3983 10.5743Z" stroke="#D23565" stroke-width="1.5" stroke-linecap="round" stroke-linejoin="round"/>
<path id="Stroke 3" fill-rule="evenodd" clip-rule="evenodd" d="M17.0773 7.293C17.122 4.76142 14.0124 0.680718 10.2229 0.750893C9.92815 0.756156 9.69219 1.00177 9.67903 1.29563C9.58341 3.37721 9.71236 6.07458 9.78429 7.29738C9.80622 7.67809 10.1053 7.97721 10.4852 7.99914C11.7422 8.07107 14.5378 8.16931 16.5896 7.85879C16.8685 7.81668 17.0729 7.57458 17.0773 7.293Z" stroke="#D23565" stroke-width="1.5" stroke-linecap="round" stroke-linejoin="round"/>
</g>
</svg>
