<svg width="19" height="18" viewBox="0 0 19 18" fill="none" xmlns="http://www.w3.org/2000/svg">
<g id="vuesax/bold/notification">
<g id="notification">
<path id="Vector" d="M14.8077 10.8675L14.0577 9.6225C13.9002 9.345 13.7577 8.82 13.7577 8.5125V6.615C13.7577 4.8525 12.7227 3.33 11.2302 2.6175C10.8402 1.9275 10.1202 1.5 9.29519 1.5C8.47769 1.5 7.74269 1.9425 7.35269 2.64C5.89019 3.3675 4.87769 4.875 4.87769 6.615V8.5125C4.87769 8.82 4.73519 9.345 4.57769 9.615L3.82019 10.8675C3.52019 11.37 3.45269 11.925 3.64019 12.435C3.82019 12.9375 4.24769 13.3275 4.80269 13.515C6.25769 14.01 7.78769 14.25 9.31769 14.25C10.8477 14.25 12.3777 14.01 13.8327 13.5225C14.3577 13.35 14.7627 12.9525 14.9577 12.435C15.1527 11.9175 15.1002 11.3475 14.8077 10.8675Z" fill="#D23565"/>
<path id="Vector_2" d="M11.4252 15.0075C11.1102 15.8775 10.2777 16.5 9.30274 16.5C8.71024 16.5 8.12524 16.26 7.71274 15.8325C7.47274 15.6075 7.29274 15.3075 7.18774 15C7.28524 15.015 7.38274 15.0225 7.48774 15.0375C7.66024 15.06 7.84024 15.0825 8.02024 15.0975C8.44774 15.135 8.88274 15.1575 9.31774 15.1575C9.74524 15.1575 10.1727 15.135 10.5927 15.0975C10.7502 15.0825 10.9077 15.075 11.0577 15.0525C11.1777 15.0375 11.2977 15.0225 11.4252 15.0075Z" fill="#D23565"/>
</g>
</g>
</svg>
